<svg xmlns="http://www.w3.org/2000/svg" width="21.189" height="16.42" viewBox="0 0 21.189 16.42">
  <g id="garage-svgrepo-com_1_" data-name="garage-svgrepo-com (1)" transform="translate(0 -57.614)">
    <g id="Group_126" data-name="Group 126" transform="translate(0 57.614)">
      <path id="Path_14456" data-name="Path 14456" d="M20.659,72.975h-.53V62.732l.324.137a.53.53,0,1,0,.411-.976L10.8,57.655a.534.534,0,0,0-.411,0L.325,61.893a.53.53,0,0,0,.411.976l.324-.137V72.975H.53a.53.53,0,0,0,0,1.059H20.659a.53.53,0,1,0,0-1.059Zm-3.708,0H4.238V70.856H16.951Zm0-3.178H4.238V67.678H16.951Zm0-3.178H4.238V64.5H16.951Zm2.119,6.356H18.011V64.5a1.059,1.059,0,0,0-1.059-1.059H4.238A1.059,1.059,0,0,0,3.178,64.5v8.476H2.119V62.286l8.476-3.569,8.476,3.569Z" transform="translate(0 -57.614)" fill="#014f8b"/>
    </g>
  </g>
</svg>
