<svg id="dispenser-fuel-svgrepo-com" xmlns="http://www.w3.org/2000/svg" width="13.396" height="13.396" viewBox="0 0 13.396 13.396">
  <g id="Group_114" data-name="Group 114" transform="translate(2.621 1.747)">
    <g id="Group_113" data-name="Group 113">
      <path id="Path_14453" data-name="Path 14453" d="M104.106,66.783h-3.495a.437.437,0,0,0-.437.437v1.747a.437.437,0,0,0,.437.437h3.495a.437.437,0,0,0,.437-.437V67.22A.437.437,0,0,0,104.106,66.783Zm-.437,1.747h-2.621v-.874h2.621Z" transform="translate(-100.174 -66.783)" fill="#014f8b"/>
    </g>
  </g>
  <g id="Group_116" data-name="Group 116" transform="translate(0)">
    <g id="Group_115" data-name="Group 115">
      <path id="Path_14454" data-name="Path 14454" d="M12.959,2.912H10.921a1.312,1.312,0,0,0-1.31,1.31V8.591a.437.437,0,0,1-.437.437H8.737V1.31A1.312,1.312,0,0,0,7.426,0H2.184A1.312,1.312,0,0,0,.874,1.31V12.523H.437a.437.437,0,1,0,0,.874H9.173a.437.437,0,0,0,0-.874H8.737V9.9h.437a1.312,1.312,0,0,0,1.31-1.31V5.533h.437a1.312,1.312,0,0,0,1.31-1.31V3.786h.728a.437.437,0,1,0,0-.874Zm-5.1,9.61H1.747V6.116H7.863Zm0-7.281H1.747V1.31A.437.437,0,0,1,2.184.874H7.426a.437.437,0,0,1,.437.437V5.242Zm3.495-1.019a.437.437,0,0,1-.437.437h-.437V4.223a.437.437,0,0,1,.437-.437h.437v.437Z" transform="translate(0)" fill="#014f8b"/>
    </g>
  </g>
  <g id="Group_118" data-name="Group 118" transform="translate(3.495 7.281)">
    <g id="Group_117" data-name="Group 117">
      <path id="Path_14455" data-name="Path 14455" d="M136.01,279.791l-.757-1.312a.437.437,0,0,0-.757,0l-.757,1.312a1.31,1.31,0,1,0,2.446.654A1.325,1.325,0,0,0,136.01,279.791Zm-1.136,1.09a.437.437,0,0,1-.437-.437c0-.152.025-.161.437-.874.412.714.437.722.437.874A.437.437,0,0,1,134.874,280.882Z" transform="translate(-133.564 -278.261)" fill="#014f8b"/>
    </g>
  </g>
</svg>
