<svg id="gearshift-svgrepo-com" xmlns="http://www.w3.org/2000/svg" width="13.396" height="13.396" viewBox="0 0 13.396 13.396">
  <g id="Group_108" data-name="Group 108" transform="translate(3.089 3.448)">
    <g id="Group_107" data-name="Group 107">
      <path id="Path_14448" data-name="Path 14448" d="M124.4,131.774v2.813h-2.3v-2.813h-.874v2.813h-2.3v-2.813h-.874v6.5h.874v-2.813h2.3v2.813h.874v-2.813h3.172v-3.687Z" transform="translate(-118.058 -131.774)" fill="#014f8b"/>
    </g>
  </g>
  <g id="Group_110" data-name="Group 110">
    <g id="Group_109" data-name="Group 109">
      <path id="Path_14449" data-name="Path 14449" d="M11.434,1.962a6.7,6.7,0,0,0-9.473,9.473,6.7,6.7,0,0,0,9.473-9.473ZM6.7,12.523A5.824,5.824,0,1,1,12.523,6.7,5.831,5.831,0,0,1,6.7,12.523Z" fill="#014f8b"/>
    </g>
  </g>
  <g id="Group_112" data-name="Group 112" transform="translate(9.197 8.117)">
    <g id="Group_111" data-name="Group 111">
      <path id="Path_14450" data-name="Path 14450" d="M352.6,311.3a.594.594,0,0,0-.327-1.073h-.779v1.7h.466V311.4h.174l.323.521h.526Zm-.346-.3h-.294v-.363h.282c.057,0,.129.064.129.182S352.31,311,352.253,311Z" transform="translate(-351.493 -310.229)" fill="#014f8b"/>
    </g>
  </g>
</svg>
