<svg xmlns="http://www.w3.org/2000/svg" width="16.935" height="18.434" viewBox="0 0 16.935 18.434">
  <g id="list-svgrepo-com" transform="translate(-19.5)">
    <path id="Path_14432" data-name="Path 14432" d="M203.321,47.1h-9.2a.519.519,0,0,0,0,1.038h9.2a.519.519,0,0,0,0-1.038Z" transform="translate(-167.405 -45.289)" fill="#014f8b"/>
    <g id="Group_105" data-name="Group 105" transform="translate(19.5)">
      <path id="Path_14433" data-name="Path 14433" d="M23.1,0H20.807A1.309,1.309,0,0,0,19.5,1.307V3.6A1.309,1.309,0,0,0,20.807,4.9H23.1A1.309,1.309,0,0,0,24.4,3.6V1.307A1.309,1.309,0,0,0,23.1,0Zm.269,3.6a.272.272,0,0,1-.269.269H20.807a.272.272,0,0,1-.269-.269V1.307a.272.272,0,0,1,.269-.269H23.1a.272.272,0,0,1,.269.269Z" transform="translate(-19.5)" fill="#ec2028"/>
      <path id="Path_14434" data-name="Path 14434" d="M23.1,175.9H20.807a1.309,1.309,0,0,0-1.307,1.307V179.5a1.309,1.309,0,0,0,1.307,1.307H23.1A1.309,1.309,0,0,0,24.4,179.5v-2.288A1.311,1.311,0,0,0,23.1,175.9Zm.269,3.6a.272.272,0,0,1-.269.269H20.807a.272.272,0,0,1-.269-.269v-2.288a.272.272,0,0,1,.269-.269H23.1a.272.272,0,0,1,.269.269Z" transform="translate(-19.5 -169.136)" fill="#014f8b"/>
      <path id="Path_14435" data-name="Path 14435" d="M23.1,351.9H20.807a1.309,1.309,0,0,0-1.307,1.307V355.5a1.309,1.309,0,0,0,1.307,1.307H23.1A1.309,1.309,0,0,0,24.4,355.5v-2.288A1.309,1.309,0,0,0,23.1,351.9Zm.269,3.6a.272.272,0,0,1-.269.269H20.807a.272.272,0,0,1-.269-.269v-2.288a.272.272,0,0,1,.269-.269H23.1a.272.272,0,0,1,.269.269Z" transform="translate(-19.5 -338.368)" fill="#ec2028"/>
      <path id="Path_14436" data-name="Path 14436" d="M200.121,226.2h-9.2a.519.519,0,0,0,0,1.038h9.2a.519.519,0,0,0,0-1.038Z" transform="translate(-183.828 -217.502)" fill="#ec2028"/>
    </g>
    <path id="Path_14437" data-name="Path 14437" d="M200.121,402.2h-9.2a.519.519,0,1,0,0,1.038h9.2a.519.519,0,1,0,0-1.038Z" transform="translate(-164.328 -386.734)" fill="#014f8b"/>
  </g>
</svg>
