<svg id="search" xmlns="http://www.w3.org/2000/svg" width="20.765" height="20.765" viewBox="0 0 20.765 20.765">
  <g id="Group_77" data-name="Group 77" transform="translate(3.122 4.501)">
    <g id="Group_76" data-name="Group 76">
      <path id="Path_14418" data-name="Path 14418" d="M79.589,111.2a.767.767,0,0,0-1.085,0,5.243,5.243,0,0,0-1.5,4.25.767.767,0,0,0,.763.691c.026,0,.051,0,.077,0a.767.767,0,0,0,.687-.84,3.714,3.714,0,0,1,1.058-3.012A.767.767,0,0,0,79.589,111.2Z" transform="translate(-76.978 -110.976)" fill="#ec2028"/>
    </g>
  </g>
  <g id="Group_79" data-name="Group 79">
    <g id="Group_78" data-name="Group 78">
      <path id="Path_14419" data-name="Path 14419" d="M8.771,0a8.771,8.771,0,1,0,8.771,8.771A8.781,8.781,0,0,0,8.771,0Zm0,16.008a7.237,7.237,0,1,1,7.237-7.237A7.245,7.245,0,0,1,8.771,16.008Z" fill="#014f8b"/>
    </g>
  </g>
  <g id="Group_81" data-name="Group 81" transform="translate(13.656 13.656)">
    <g id="Group_80" data-name="Group 80">
      <path id="Path_14420" data-name="Path 14420" d="M343.593,342.509l-5.575-5.575a.767.767,0,0,0-1.085,1.085l5.575,5.575a.767.767,0,1,0,1.085-1.085Z" transform="translate(-336.708 -336.71)" fill="#014f8b"/>
    </g>
  </g>
</svg>
