<svg xmlns="http://www.w3.org/2000/svg" width="17.593" height="18.434" viewBox="0 0 17.593 18.434">
  <g id="cogwheel_1_" data-name="cogwheel (1)" transform="translate(0 0)">
    <path id="Path_14423" data-name="Path 14423" d="M141.488,157.013a3.841,3.841,0,1,1,3.84-3.84A3.845,3.845,0,0,1,141.488,157.013Zm0-6.529a2.688,2.688,0,1,0,2.688,2.688A2.691,2.691,0,0,0,141.488,150.484Zm0,0" transform="translate(-132.692 -143.955)" fill="#ec2028"/>
    <path id="Path_14424" data-name="Path 14424" d="M10.073,18.434H7.519A1.332,1.332,0,0,1,6.228,17.4L5.9,15.959a7.061,7.061,0,0,1-1.5-.872L3,15.529a1.331,1.331,0,0,1-1.555-.606l-1.273-2.2a1.343,1.343,0,0,1,.247-1.639l1.085-1a7.772,7.772,0,0,1-.049-.867,7.941,7.941,0,0,1,.048-.867L.427,7.357A1.341,1.341,0,0,1,.171,5.72L1.452,3.5A1.332,1.332,0,0,1,3,2.9l1.4.443a7.067,7.067,0,0,1,1.5-.872l.324-1.439A1.331,1.331,0,0,1,7.519,0h2.555a1.332,1.332,0,0,1,1.291,1.038l.323,1.438a7.061,7.061,0,0,1,1.5.872l1.4-.442a1.332,1.332,0,0,1,1.555.606l1.274,2.2a1.343,1.343,0,0,1-.247,1.639l-1.085,1a7.8,7.8,0,0,1,0,1.734l1.08.992.005,0a1.339,1.339,0,0,1,.25,1.632L16.14,14.93a1.328,1.328,0,0,1-1.549.6l-1.4-.443a7.07,7.07,0,0,1-1.5.872L11.363,17.4a1.329,1.329,0,0,1-1.29,1.037ZM4.521,13.871A.576.576,0,0,1,4.887,14,5.916,5.916,0,0,0,6.6,15a.576.576,0,0,1,.363.414l.391,1.736a.172.172,0,0,0,.167.137h2.555a.171.171,0,0,0,.166-.135l.392-1.737A.576.576,0,0,1,10.994,15,5.928,5.928,0,0,0,12.706,14a.574.574,0,0,1,.54-.105l1.691.534a.172.172,0,0,0,.2-.071l1.281-2.216a.188.188,0,0,0-.037-.222l-1.3-1.192a.576.576,0,0,1-.18-.509,6.671,6.671,0,0,0,0-2.009.576.576,0,0,1,.18-.509l1.3-1.2a.188.188,0,0,0,.03-.226l-1.274-2.2A.176.176,0,0,0,14.935,4l-1.688.533a.575.575,0,0,1-.54-.105A5.917,5.917,0,0,0,11,3.437a.575.575,0,0,1-.362-.414l-.391-1.736a.176.176,0,0,0-.168-.135H7.519a.171.171,0,0,0-.166.135L6.961,3.025a.577.577,0,0,1-.362.414,5.911,5.911,0,0,0-1.711.993.578.578,0,0,1-.54.105L2.657,4a.174.174,0,0,0-.2.071L1.172,6.289a.188.188,0,0,0,.039.224l1.3,1.19a.576.576,0,0,1,.18.509,6.67,6.67,0,0,0,0,2.009.577.577,0,0,1-.18.509l-1.3,1.2a.188.188,0,0,0-.03.226l1.274,2.2a.177.177,0,0,0,.209.077L4.347,13.9a.561.561,0,0,1,.174-.027Zm0,0" transform="translate(0 0)" fill="#014f8b"/>
  </g>
</svg>
