<svg id="speedometer2" xmlns="http://www.w3.org/2000/svg" width="14.626" height="11" viewBox="0 0 14.626 11">
  <path id="Path_14451" data-name="Path 14451" d="M7.434,4a.461.461,0,0,1,.453.47V5.879a.453.453,0,1,1-.906,0V4.47A.461.461,0,0,1,7.434,4ZM3.569,5.627a.441.441,0,0,1,.64,0l.829.859a.483.483,0,0,1,0,.665.442.442,0,0,1-.641,0l-.828-.86a.482.482,0,0,1,0-.664ZM2,9.636a.461.461,0,0,1,.453-.47H3.889a.47.47,0,0,1,0,.939H2.453A.461.461,0,0,1,2,9.636Zm8.6,0a.461.461,0,0,1,.453-.47h1.359a.47.47,0,0,1,0,.939H11.057A.461.461,0,0,1,10.6,9.636Zm.683-3.989a.343.343,0,0,0-.477-.019L7.024,8.988a.874.874,0,0,0-.269.861.839.839,0,0,0,.627.629.809.809,0,0,0,.82-.308l3.11-4.036a.375.375,0,0,0-.026-.487Z" transform="translate(-0.121 -2.246)" fill="#014f8b"/>
  <path id="Path_14452" data-name="Path 14452" d="M0,9.314a7.313,7.313,0,1,1,14.212,2.432,2.086,2.086,0,0,1-2.68,1.143,15.134,15.134,0,0,0-4.219-.833,15.134,15.134,0,0,0-4.219.833,2.086,2.086,0,0,1-2.68-1.143A7.3,7.3,0,0,1,0,9.314Zm7.313-6.4a6.4,6.4,0,0,0-6.036,8.528,1.177,1.177,0,0,0,1.536.576,16.041,16.041,0,0,1,4.5-.877,15.97,15.97,0,0,1,4.5.878,1.178,1.178,0,0,0,1.536-.577A6.4,6.4,0,0,0,7.313,2.915Z" transform="translate(0 -2.007)" fill="#014f8b" fill-rule="evenodd"/>
</svg>
