<svg xmlns="http://www.w3.org/2000/svg" width="17.021" height="14.374" viewBox="0 0 17.021 14.374">
  <g id="Group_125" data-name="Group 125" transform="translate(-2.416 -4.316)">
    <path id="Path_14438" data-name="Path 14438" d="M51.033,90.872l-1.048-3.689a.54.54,0,0,0-.374-.374,20.881,20.881,0,0,0-5.647-.774,18.09,18.09,0,0,0-5.541.785.54.54,0,0,0-.34.363l-1.035,3.69a1.54,1.54,0,0,0-1.5,1.538v4.25A1.542,1.542,0,0,0,37.09,98.2h.155v.669a1.541,1.541,0,0,0,1.539,1.539h.333a1.541,1.541,0,0,0,1.539-1.539V98.2h6.92v.669a1.541,1.541,0,0,0,1.539,1.539h.333a1.541,1.541,0,0,0,1.539-1.539V98.2h.044a1.542,1.542,0,0,0,1.54-1.539v-4.25A1.541,1.541,0,0,0,51.033,90.872Zm.461,5.789a.461.461,0,0,1-.461.46h-.583a.54.54,0,0,0-.54.54v1.208a.461.461,0,0,1-.46.46h-.333a.461.461,0,0,1-.46-.46V97.661a.54.54,0,0,0-.54-.54h-8a.54.54,0,0,0-.54.54v1.208a.461.461,0,0,1-.46.46h-.333a.461.461,0,0,1-.46-.46V97.661a.54.54,0,0,0-.54-.54H37.09a.461.461,0,0,1-.46-.46v-4.25a.461.461,0,0,1,.46-.46h.367a.539.539,0,0,0,.519-.394l1.066-3.8a18.176,18.176,0,0,1,4.922-.643,19.82,19.82,0,0,1,5.064.655l1.063,3.788a.54.54,0,0,0,.52.394h.422a.461.461,0,0,1,.461.46v4.25Z" transform="translate(-33.135 -81.719)" fill="#014f8b"/>
    <path id="Path_14439" data-name="Path 14439" d="M63.5,186.065a1.665,1.665,0,1,0,1.664,1.665A1.666,1.666,0,0,0,63.5,186.065Zm0,2.25a.585.585,0,1,1,.585-.585A.586.586,0,0,1,63.5,188.315Z" transform="translate(-57.603 -174.829)" fill="#ec2028"/>
    <path id="Path_14440" data-name="Path 14440" d="M208.032,186.065a1.665,1.665,0,1,0,1.664,1.665A1.666,1.666,0,0,0,208.032,186.065Zm0,2.25a.585.585,0,1,1,.585-.585A.586.586,0,0,1,208.032,188.315Z" transform="translate(-192.135 -174.829)" fill="#ec2028"/>
    <path id="Path_14441" data-name="Path 14441" d="M82.144,115.323h9.513a.539.539,0,0,0,.525-.662l-.614-2.629a.54.54,0,0,0-.383-.4,15.869,15.869,0,0,0-4.178-.535,17.394,17.394,0,0,0-4.4.537.541.541,0,0,0-.376.4l-.614,2.629a.539.539,0,0,0,.526.661Zm1.064-2.725a17.283,17.283,0,0,1,3.8-.419,14.963,14.963,0,0,1,3.584.416l.385,1.649H82.824Z" transform="translate(-76.002 -105.05)" fill="#014f8b"/>
  </g>
</svg>
